<svg width="40" height="40" viewBox="0 0 25 25" fill="none" xmlns="http://www.w3.org/2000/svg">
  <mask id="mask0_15_7731" style="mask-type:alpha" maskUnits="userSpaceOnUse" x="0" y="0" width="25" height="25">
    <rect width="30" height="30" fill="#D9D9D9"/>
  </mask>
  <g mask="url(#mask0_15_7731)">
    <path d="M3.33341 20C2.87508 20 2.48272 19.8368 2.15633 19.5104C1.82994 19.184 1.66675 18.7916 1.66675 18.3333C1.66675 17.875 1.82994 17.4826 2.15633 17.1562C2.48272 16.8298 2.87508 16.6666 3.33341 16.6666H16.6667C17.1251 16.6666 17.5174 16.8298 17.8438 17.1562C18.1702 17.4826 18.3334 17.875 18.3334 18.3333C18.3334 18.7916 18.1702 19.184 17.8438 19.5104C17.5174 19.8368 17.1251 20 16.6667 20H3.33341ZM14.1667 12.0416L11.9584 10L14.1667 7.95833C14.4584 7.66666 14.4584 7.20833 14.1667 6.91666C13.875 6.62499 13.4167 6.62499 13.125 6.91666L10.9584 9.125L8.79166 6.91666C8.49999 6.62499 8.04166 6.62499 7.75 6.91666C7.45833 7.20833 7.45833 7.66666 7.75 7.95833L9.95833 10L7.75 12.0416C7.45833 12.3333 7.45833 12.7916 7.75 13.0833C8.04166 13.375 8.49999 13.375 8.79166 13.0833L10.9584 10.875L13.125 13.0833C13.4167 13.375 13.875 13.375 14.1667 13.0833C14.4584 12.7916 14.4584 12.3333 14.1667 12.0416Z" fill="#DC3545"/>
  </g>
</svg>
