<?xml version="1.0" encoding="iso-8859-1"?>
<svg xmlns="http://www.w3.org/2000/svg" xmlns:xlink="http://www.w3.org/1999/xlink" viewBox="0 0 20 20" width="20px" height="20px">
    <polyline style="fill:none;stroke:#2884EF;stroke-width:2;stroke-miterlimit:10;" points="6.04,9.48 9.6,12.8 17.6,3.36" />
    <path d="M17.746,5.045l-0.548,0.647c1.373,1.818,2.214,4.204,2.214,6.91c0,9.263-7.535,16.8-16.8,16.8S0,14.216,0,4.952S7.535-11.848,16.8-11.848c2.177,0,4.158,0.84,5.651,2.204l0.523-0.617C14.541,2.083,11.12,1.6,7.776,1.6C4.08,1.6,1.6,4.08,1.6,7.776s2.48,6.176,6.176,6.176c1.74,0,3.348-0.61,4.662-1.66z" style="fill:none;stroke:#2884EF;stroke-width:2;stroke-miterlimit:10;"/>
</svg>
