<svg width="5" height="4" viewBox="0 0 10 7" fill="none" xmlns="http://www.w3.org/2000/svg">
<path d="M4.06667 6.33351C3.97894 6.33402 3.89196 6.3172 3.81074 6.28402C3.72951 6.25085 3.65563 6.20196 3.59334 6.14017L0.533341 3.05351C0.407806 2.92797 0.33728 2.75771 0.33728 2.58018C0.33728 2.40264 0.407806 2.23238 0.533341 2.10684C0.658877 1.98131 0.82914 1.91078 1.00667 1.91078C1.18421 1.91078 1.35447 1.98131 1.48001 2.10684L4.06667 4.70018L8.51334 0.246842C8.63888 0.121307 8.80914 0.0507812 8.98667 0.0507812C9.16421 0.0507813 9.33447 0.121307 9.46001 0.246842C9.58554 0.372378 9.65607 0.542641 9.65607 0.720176C9.65607 0.89771 9.58554 1.06797 9.46001 1.19351L4.54001 6.11351C4.41649 6.24512 4.24692 6.32394 4.06667 6.33351Z" fill="#023E8A"/>
</svg>