<svg xmlns="http://www.w3.org/2000/svg"
               width="25"
               height="24"
               viewBox="0 0 25 24"
               fill="none"
               class="flex-shrink-0">
            <mask id="mask0_1102_3197" style="mask-type: alpha" maskUnits="userSpaceOnUse" x="0" y="0" width="25" height="24">
            <rect x="0.5" width="24" height="24" fill="#D9D9D9" />
            </mask>
            <g mask="url(#mask0_1102_3197)">
            <path d="M12.5 22C11.1333 22 9.84167 21.7375 8.625 21.2125C7.40833 20.6875 6.34583 19.9708 5.4375 19.0625C4.52917 18.1542 3.8125 17.0917 3.2875 15.875C2.7625 14.6583 2.5 13.3667 2.5 12C2.5 10.6167 2.7625 9.32083 3.2875 8.1125C3.8125 6.90417 4.52917 5.84583 5.4375 4.9375C6.34583 4.02917 7.40833 3.3125 8.625 2.7875C9.84167 2.2625 11.1333 2 12.5 2C13.8833 2 15.1792 2.2625 16.3875 2.7875C17.5958 3.3125 18.6542 4.02917 19.5625 4.9375C20.4708 5.84583 21.1875 6.90417 21.7125 8.1125C22.2375 9.32083 22.5 10.6167 22.5 12C22.5 13.3667 22.2375 14.6583 21.7125 15.875C21.1875 17.0917 20.4708 18.1542 19.5625 19.0625C18.6542 19.9708 17.5958 20.6875 16.3875 21.2125C15.1792 21.7375 13.8833 22 12.5 22ZM12.5 16C13.5 16 14.475 16.1458 15.425 16.4375C16.375 16.7292 17.2667 17.15 18.1 17.7C18.8667 16.9333 19.4583 16.0625 19.875 15.0875C20.2917 14.1125 20.5 13.0833 20.5 12C20.5 9.76667 19.725 7.875 18.175 6.325C16.625 4.775 14.7333 4 12.5 4C10.2667 4 8.375 4.775 6.825 6.325C5.275 7.875 4.5 9.76667 4.5 12C4.5 13.0833 4.70417 14.1167 5.1125 15.1C5.52083 16.0833 6.11667 16.95 6.9 17.7C7.73333 17.15 8.625 16.7292 9.575 16.4375C10.525 16.1458 11.5 16 12.5 16ZM12.5 18C11.8167 18 11.15 18.0833 10.5 18.25C9.85 18.4167 9.23333 18.6667 8.65 19C9.23333 19.3333 9.85 19.5833 10.5 19.75C11.15 19.9167 11.8167 20 12.5 20C13.1833 20 13.85 19.9167 14.5 19.75C15.15 19.5833 15.7667 19.3333 16.35 19C15.7667 18.6667 15.15 18.4167 14.5 18.25C13.85 18.0833 13.1833 18 12.5 18ZM7.5 11C7.78333 11 8.02083 10.9042 8.2125 10.7125C8.40417 10.5208 8.5 10.2833 8.5 10C8.5 9.71667 8.40417 9.47917 8.2125 9.2875C8.02083 9.09583 7.78333 9 7.5 9C7.21667 9 6.97917 9.09583 6.7875 9.2875C6.59583 9.47917 6.5 9.71667 6.5 10C6.5 10.2833 6.59583 10.5208 6.7875 10.7125C6.97917 10.9042 7.21667 11 7.5 11ZM10.5 8C10.7833 8 11.0208 7.90417 11.2125 7.7125C11.4042 7.52083 11.5 7.28333 11.5 7C11.5 6.71667 11.4042 6.47917 11.2125 6.2875C11.0208 6.09583 10.7833 6 10.5 6C10.2167 6 9.97917 6.09583 9.7875 6.2875C9.59583 6.47917 9.5 6.71667 9.5 7C9.5 7.28333 9.59583 7.52083 9.7875 7.7125C9.97917 7.90417 10.2167 8 10.5 8ZM17.5 11C17.7833 11 18.0208 10.9042 18.2125 10.7125C18.4042 10.5208 18.5 10.2833 18.5 10C18.5 9.71667 18.4042 9.47917 18.2125 9.2875C18.0208 9.09583 17.7833 9 17.5 9C17.2167 9 16.9792 9.09583 16.7875 9.2875C16.5958 9.47917 16.5 9.71667 16.5 10C16.5 10.2833 16.5958 10.5208 16.7875 10.7125C16.9792 10.9042 17.2167 11 17.5 11ZM12.5 14C13.05 14 13.5208 13.8042 13.9125 13.4125C14.3042 13.0208 14.5 12.55 14.5 12C14.5 11.7833 14.4667 11.5708 14.4 11.3625C14.3333 11.1542 14.2333 10.9667 14.1 10.8L15.45 7.4C15.5667 7.13333 15.5708 6.87083 15.4625 6.6125C15.3542 6.35417 15.1667 6.16667 14.9 6.05C14.65 5.93333 14.3958 5.92917 14.1375 6.0375C13.8792 6.14583 13.7 6.33333 13.6 6.6L12.25 10C11.75 10.0833 11.3333 10.3125 11 10.6875C10.6667 11.0625 10.5 11.5 10.5 12C10.5 12.55 10.6958 13.0208 11.0875 13.4125C11.4792 13.8042 11.95 14 12.5 14Z" fill="#5E6278" />
            </g>
          </svg>