<svg width="30" height="30" viewBox="0 0 25 24" fill="none" xmlns="http://www.w3.org/2000/svg">
<g id="Icons 30px">
<mask id="mask0_1564_2524" style="mask-type:alpha" maskUnits="userSpaceOnUse" x="0" y="0" width="25" height="24">
<rect id="Bounding box" x="0.5" width="24" height="24" fill="#D9D9D9"/>
</mask>
<g mask="url(#mask0_1564_2524)">
<path id="calendar_month" d="M5.5 22C4.95 22 4.47917 21.8042 4.0875 21.4125C3.69583 21.0208 3.5 20.55 3.5 20V6C3.5 5.45 3.69583 4.97917 4.0875 4.5875C4.47917 4.19583 4.95 4 5.5 4H6.5V3C6.5 2.71667 6.59583 2.47917 6.7875 2.2875C6.97917 2.09583 7.21667 2 7.5 2C7.78333 2 8.02083 2.09583 8.2125 2.2875C8.40417 2.47917 8.5 2.71667 8.5 3V4H16.5V3C16.5 2.71667 16.5958 2.47917 16.7875 2.2875C16.9792 2.09583 17.2167 2 17.5 2C17.7833 2 18.0208 2.09583 18.2125 2.2875C18.4042 2.47917 18.5 2.71667 18.5 3V4H19.5C20.05 4 20.5208 4.19583 20.9125 4.5875C21.3042 4.97917 21.5 5.45 21.5 6V20C21.5 20.55 21.3042 21.0208 20.9125 21.4125C20.5208 21.8042 20.05 22 19.5 22H5.5ZM5.5 20H19.5V10H5.5V20ZM5.5 8H19.5V6H5.5V8ZM12.5 14C12.2167 14 11.9792 13.9042 11.7875 13.7125C11.5958 13.5208 11.5 13.2833 11.5 13C11.5 12.7167 11.5958 12.4792 11.7875 12.2875C11.9792 12.0958 12.2167 12 12.5 12C12.7833 12 13.0208 12.0958 13.2125 12.2875C13.4042 12.4792 13.5 12.7167 13.5 13C13.5 13.2833 13.4042 13.5208 13.2125 13.7125C13.0208 13.9042 12.7833 14 12.5 14ZM8.5 14C8.21667 14 7.97917 13.9042 7.7875 13.7125C7.59583 13.5208 7.5 13.2833 7.5 13C7.5 12.7167 7.59583 12.4792 7.7875 12.2875C7.97917 12.0958 8.21667 12 8.5 12C8.78333 12 9.02083 12.0958 9.2125 12.2875C9.40417 12.4792 9.5 12.7167 9.5 13C9.5 13.2833 9.40417 13.5208 9.2125 13.7125C9.02083 13.9042 8.78333 14 8.5 14ZM16.5 14C16.2167 14 15.9792 13.9042 15.7875 13.7125C15.5958 13.5208 15.5 13.2833 15.5 13C15.5 12.7167 15.5958 12.4792 15.7875 12.2875C15.9792 12.0958 16.2167 12 16.5 12C16.7833 12 17.0208 12.0958 17.2125 12.2875C17.4042 12.4792 17.5 12.7167 17.5 13C17.5 13.2833 17.4042 13.5208 17.2125 13.7125C17.0208 13.9042 16.7833 14 16.5 14ZM12.5 18C12.2167 18 11.9792 17.9042 11.7875 17.7125C11.5958 17.5208 11.5 17.2833 11.5 17C11.5 16.7167 11.5958 16.4792 11.7875 16.2875C11.9792 16.0958 12.2167 16 12.5 16C12.7833 16 13.0208 16.0958 13.2125 16.2875C13.4042 16.4792 13.5 16.7167 13.5 17C13.5 17.2833 13.4042 17.5208 13.2125 17.7125C13.0208 17.9042 12.7833 18 12.5 18ZM8.5 18C8.21667 18 7.97917 17.9042 7.7875 17.7125C7.59583 17.5208 7.5 17.2833 7.5 17C7.5 16.7167 7.59583 16.4792 7.7875 16.2875C7.97917 16.0958 8.21667 16 8.5 16C8.78333 16 9.02083 16.0958 9.2125 16.2875C9.40417 16.4792 9.5 16.7167 9.5 17C9.5 17.2833 9.40417 17.5208 9.2125 17.7125C9.02083 17.9042 8.78333 18 8.5 18ZM16.5 18C16.2167 18 15.9792 17.9042 15.7875 17.7125C15.5958 17.5208 15.5 17.2833 15.5 17C15.5 16.7167 15.5958 16.4792 15.7875 16.2875C15.9792 16.0958 16.2167 16 16.5 16C16.7833 16 17.0208 16.0958 17.2125 16.2875C17.4042 16.4792 17.5 16.7167 17.5 17C17.5 17.2833 17.4042 17.5208 17.2125 17.7125C17.0208 17.9042 16.7833 18 16.5 18Z" fill="#7E8299"/>
</g>
</g>
</svg>
