<svg width="20" height="20" viewBox="0 0 20 20" fill="none" xmlns="http://www.w3.org/2000/svg">
<mask id="mask0_15_7734" style="mask-type:alpha" maskUnits="userSpaceOnUse" x="0" y="0" width="20" height="20">
<rect width="20" height="20" fill="#D9D9D9"/>
</mask>
<g mask="url(#mask0_15_7734)">
<path d="M5.3125 18.3333C4.79688 18.3333 4.35547 18.152 3.98828 17.7893C3.62109 17.4267 3.4375 16.9907 3.4375 16.4814V4.4444C3.17188 4.4444 2.94922 4.35567 2.76953 4.1782C2.58984 4.00073 2.5 3.78082 2.5 3.51848C2.5 3.25613 2.58984 3.03622 2.76953 2.85876C2.94922 2.68129 3.17188 2.59255 3.4375 2.59255H7.1875C7.1875 2.33021 7.27734 2.1103 7.45703 1.93283C7.63672 1.75536 7.85938 1.66663 8.125 1.66663H11.875C12.1406 1.66663 12.3633 1.75536 12.543 1.93283C12.7227 2.1103 12.8125 2.33021 12.8125 2.59255H16.5625C16.8281 2.59255 17.0508 2.68129 17.2305 2.85876C17.4102 3.03622 17.5 3.25613 17.5 3.51848C17.5 3.78082 17.4102 4.00073 17.2305 4.1782C17.0508 4.35567 16.8281 4.4444 16.5625 4.4444V16.4814C16.5625 16.9907 16.3789 17.4267 16.0117 17.7893C15.6445 18.152 15.2031 18.3333 14.6875 18.3333H5.3125ZM14.6875 4.4444H5.3125V16.4814H14.6875V4.4444ZM7.1875 14.6296H9.0625V6.29626H7.1875V14.6296ZM10.9375 14.6296H12.8125V6.29626H10.9375V14.6296Z" fill="#FF4D4F"/>
</g>
</svg>
