<svg width="6" height="6" viewBox="0 0 6 6" fill="none" xmlns="http://www.w3.org/2000/svg">
<path d="M2.99169 5.5C2.53212 5.5 2.11406 5.38649 1.73754 5.15947C1.36102 4.93245 1.05925 4.63068 0.832226 4.25415C0.610742 3.87209 0.5 3.45127 0.5 2.99169C0.5 2.53765 0.610742 2.12237 0.832226 1.74585C1.05925 1.36932 1.36102 1.06755 1.73754 0.840531C2.11406 0.61351 2.53212 0.5 2.99169 0.5C3.45127 0.5 3.86932 0.61351 4.24585 0.840531C4.62791 1.06755 4.93245 1.36932 5.15947 1.74585C5.38649 2.12237 5.5 2.53765 5.5 2.99169C5.5 3.45127 5.38649 3.87209 5.15947 4.25415C4.93245 4.63068 4.62791 4.93245 4.24585 5.15947C3.86932 5.38649 3.45127 5.5 2.99169 5.5Z" fill="#5E6278"/>
</svg>
