<svg width="17" height="16" viewBox="0 0 17 16" fill="none" xmlns="http://www.w3.org/2000/svg">
<path d="M8.50004 10.6667C8.34427 10.667 8.19331 10.6127 8.07337 10.5133L4.07337 7.18C3.78986 6.94435 3.75106 6.5235 3.9867 6.24C4.22234 5.95649 4.6432 5.91769 4.9267 6.15333L8.50004 9.14L12.0734 6.26C12.2111 6.14815 12.3877 6.09582 12.5642 6.11459C12.7406 6.13335 12.9023 6.22168 13.0134 6.36C13.1368 6.49857 13.1969 6.68231 13.1792 6.86703C13.1614 7.05176 13.0675 7.22074 12.92 7.33333L8.92004 10.5533C8.79665 10.637 8.64877 10.6769 8.50004 10.6667Z" fill="#023E8A"/>
</svg>
