<svg width="25" height="24" viewBox="0 0 25 24" fill="none" xmlns="http://www.w3.org/2000/svg">
<g id="down">
<g id="arrows">
<path id="down_2" d="M12.3901 17.243C12.2585 17.2437 12.128 17.2185 12.0062 17.1688C11.8843 17.119 11.7735 17.0457 11.6801 16.953L5.68008 10.953C5.58635 10.86 5.51195 10.7494 5.46118 10.6276C5.41042 10.5057 5.38428 10.375 5.38428 10.243C5.38428 10.111 5.41042 9.98026 5.46118 9.8584C5.51195 9.73654 5.58635 9.62594 5.68008 9.53298C5.86744 9.34673 6.12089 9.24219 6.38508 9.24219C6.64926 9.24219 6.90271 9.34673 7.09008 9.53298L12.3901 14.833L17.6801 9.53298C17.8674 9.34673 18.1209 9.24219 18.3851 9.24219C18.6493 9.24219 18.9027 9.34673 19.0901 9.53298C19.1838 9.62594 19.2582 9.73654 19.309 9.8584C19.3597 9.98026 19.3859 10.111 19.3859 10.243C19.3859 10.375 19.3597 10.5057 19.309 10.6276C19.2582 10.7494 19.1838 10.86 19.0901 10.953L13.0901 16.953C12.9038 17.1377 12.6524 17.2419 12.3901 17.243Z" fill="#7E8299"/>
</g>
</g>
</svg>
