<svg width="20" height="20" viewBox="0 0 20 20" fill="none" xmlns="http://www.w3.org/2000/svg">
<mask id="mask0_15_7731" style="mask-type:alpha" maskUnits="userSpaceOnUse" x="0" y="0" width="20" height="20">
<rect width="20" height="20" fill="#D9D9D9"/>
</mask>
<g mask="url(#mask0_15_7731)">
<path d="M3.33341 20C2.87508 20 2.48272 19.8368 2.15633 19.5104C1.82994 19.184 1.66675 18.7916 1.66675 18.3333C1.66675 17.875 1.82994 17.4826 2.15633 17.1562C2.48272 16.8298 2.87508 16.6666 3.33341 16.6666H16.6667C17.1251 16.6666 17.5174 16.8298 17.8438 17.1562C18.1702 17.4826 18.3334 17.875 18.3334 18.3333C18.3334 18.7916 18.1702 19.184 17.8438 19.5104C17.5174 19.8368 17.1251 20 16.6667 20H3.33341ZM4.16675 15C3.93064 15 3.73272 14.9201 3.573 14.7604C3.41328 14.6007 3.33341 14.4027 3.33341 14.1666V12.2291C3.33341 12.118 3.35425 12.0104 3.39591 11.9062C3.43758 11.8021 3.50008 11.7083 3.58341 11.625L10.8751 4.3333L14.0001 7.4583L6.70841 14.75C6.62508 14.8333 6.53133 14.8958 6.42716 14.9375C6.323 14.9791 6.21536 15 6.10425 15H4.16675ZM5.00008 13.3333H5.75008L11.6667 7.4583L10.8751 6.66664L5.00008 12.5833V13.3333ZM14.9376 6.54164L11.8126 3.41664L13.3126 1.91664C13.4654 1.74997 13.6598 1.67011 13.8959 1.67705C14.132 1.684 14.3265 1.76386 14.4792 1.91664L16.4376 3.87497C16.5904 4.02775 16.6667 4.21872 16.6667 4.44789C16.6667 4.67705 16.5904 4.87497 16.4376 5.04164L14.9376 6.54164Z" fill="#2884EF"/>
</g>
</svg>
