<svg width="220" height="40" viewBox="0 0 220 40" fill="none" xmlns="http://www.w3.org/2000/svg">
<path d="M62.9968 31.6764V1.66352H75.3631V6.2655H67.6216V16.77H74.2772V21.372H67.6216V31.6764H62.9968Z" fill="#023E8A"/>
<path d="M83.0992 32.1766C81.2225 32.1766 79.7814 31.6164 78.776 30.4959C77.784 29.3754 77.288 27.9548 77.288 26.2341C77.288 25.2203 77.4489 24.3666 77.7706 23.673C78.1058 22.9793 78.5347 22.3991 79.0575 21.9322C79.5937 21.4653 80.1768 21.0785 80.8069 20.7717C81.5308 20.3982 82.2747 20.0981 83.0388 19.8713C83.8029 19.6312 84.5134 19.3911 85.1702 19.151C85.8271 18.8976 86.3566 18.5841 86.7588 18.2106C87.1609 17.8238 87.362 17.3102 87.362 16.67V16.2298C87.362 15.4294 87.1207 14.7825 86.6381 14.2889C86.1689 13.7954 85.5188 13.5486 84.6877 13.5486C83.8431 13.5486 83.1863 13.7954 82.7171 14.2889C82.2613 14.7825 82.0335 15.4294 82.0335 16.2298V17.2302H77.7103V16.5299C77.7103 14.3423 78.3403 12.5815 79.6004 11.2476C80.8739 9.91373 82.5697 9.24677 84.6877 9.24677C86.0952 9.24677 87.3218 9.55357 88.3674 10.1672C89.413 10.7674 90.224 11.6145 90.8004 12.7083C91.3902 13.8021 91.6851 15.0759 91.6851 16.5299V31.6764H87.362V28.375V29.3617C86.9196 30.2821 87.0135 30.9627 86.1555 31.4563C85.2976 31.9365 84.2788 32.1766 83.0992 32.1766ZM84.3861 28.1949C85.2172 28.1949 85.9209 27.9548 86.4974 27.4746C87.0738 26.9944 87.362 26.2341 87.362 25.1936V21.8522C86.8526 22.2257 86.2561 22.4991 85.5724 22.6725C84.9022 22.8459 84.2386 23.0727 83.5817 23.3528C82.9517 23.6063 82.4624 23.9197 82.1139 24.2932C81.7788 24.6667 81.6112 25.1536 81.6112 25.7538C81.6112 26.4208 81.8458 26.9944 82.315 27.4746C82.7975 27.9548 83.4879 28.1949 84.3861 28.1949Z" fill="#023E8A"/>
<path d="M102.797 32.1766C101.39 32.1766 100.163 31.8765 99.1174 31.2762C98.0718 30.6626 97.2541 29.8089 96.6643 28.7151C96.0879 27.6213 95.7997 26.3474 95.7997 24.8935V16.5299C95.7997 15.0893 96.0879 13.8221 96.6643 12.7283C97.2541 11.6211 98.0718 10.7674 99.1174 10.1672C100.163 9.55357 101.39 9.24677 102.797 9.24677C104.915 9.24677 106.604 9.91373 107.864 11.2476C109.138 12.5815 109.774 14.3423 109.774 16.5299V16.9301H105.451V16.2298C105.451 15.4294 105.217 14.7825 104.748 14.2889C104.278 13.7954 103.628 13.5486 102.797 13.5486C101.966 13.5486 101.309 13.7954 100.827 14.2889C100.357 14.7825 100.123 15.4294 100.123 16.2298V25.1936C100.123 25.9939 100.357 26.6409 100.827 27.1344C101.309 27.628 101.966 27.8748 102.797 27.8748C103.628 27.8748 104.278 27.628 104.748 27.1344C105.217 26.6409 105.451 25.9939 105.451 25.1936V24.4933H109.774V24.8935C109.774 27.0677 109.138 28.8285 107.864 30.1757C106.604 31.5096 104.915 32.1766 102.797 32.1766Z" fill="#023E8A"/>
<path d="M121.751 31.9365C119.633 31.9365 117.937 31.3096 116.664 30.0557C115.403 28.8018 114.773 27.0677 114.773 24.8535V13.7287H111.054V9.74699H114.773V4.46473H119.097V9.74699H123.721V13.7287H119.097V24.8535C119.097 25.6938 119.331 26.3674 119.8 26.8743C120.27 27.3812 120.92 27.6347 121.751 27.6347H123.721V31.9365H121.751Z" fill="#023E8A"/>
<path d="M127.154 31.6764V9.767H131.478V13.2085V12.1481C131.947 11.2144 131.806 10.654 132.624 10.1872C133.441 9.72031 134.386 9.48688 135.459 9.48688H136.444V13.7887H134.112C133.294 13.7887 132.651 14.0088 132.181 14.449C131.712 14.8759 131.478 15.4894 131.478 16.2898V31.6764H127.154Z" fill="#023E8A"/>
<path d="M140.864 38.8795L142.814 31.8164L136.641 9.767H141.346L144.961 26.4141L148.686 9.767H153.411L145.287 38.8795H140.864Z" fill="#023E8A"/>
<path d="M156.662 31.6764V1.66352H169.029V6.2655H161.287V16.77H167.943V21.372H161.287V31.6764H156.662Z" fill="#023E8A"/>
<path d="M172.593 31.6764V1.66352H176.916V31.6764H172.593Z" fill="#023E8A"/>
<path d="M188.333 32.1766C186.926 32.1766 185.699 31.8765 184.654 31.2762C183.608 30.6626 182.79 29.8089 182.2 28.7151C181.624 27.6213 181.336 26.3474 181.336 24.8935V16.5299C181.336 15.0893 181.624 13.8221 182.2 12.7283C182.79 11.6211 183.608 10.7674 184.654 10.1672C185.699 9.55357 186.926 9.24677 188.333 9.24677C190.451 9.24677 192.14 9.91373 193.4 11.2476C194.674 12.5815 195.311 14.3423 195.311 16.5299V24.8935C195.311 27.0677 194.674 28.8285 193.4 30.1757C192.14 31.5096 190.451 32.1766 188.333 32.1766ZM188.333 27.8748C189.164 27.8748 189.815 27.628 190.284 27.1344C190.753 26.6409 190.987 25.9939 190.987 25.1936V16.2298C190.987 15.4294 190.753 14.7825 190.284 14.2889C189.815 13.7954 189.164 13.5486 188.333 13.5486C187.502 13.5486 186.845 13.7954 186.363 14.2889C185.894 14.7825 185.659 15.4294 185.659 16.2298V25.1936C185.659 25.9939 185.894 26.6409 186.363 27.1344C186.845 27.628 187.502 27.8748 188.333 27.8748Z" fill="#023E8A"/>
<path d="M201.581 31.6764L197.821 9.767H202.325L203.813 26.5142L206.99 9.767H210.831L213.364 26.5342L215.496 9.767H220L216.24 31.6764H211.716L208.915 16.3098L206.126 31.6764H201.581Z" fill="#023E8A"/>
<path d="M15.28 0H45.7659L38.1259 13.5579H23.0684L30.5601 26.6665H15.2059L7.64002 39.9248L0 26.6665L15.28 0Z" fill="#023E8A"/>
<path d="M38.1259 40H7.64001L15.28 26.4421H30.3375L22.8459 13.3335H38.2001L45.7659 0.07523L53.406 13.3335L38.1259 40Z" fill="#00B4D8"/>
</svg>
