<svg width="140" height="105" viewBox="0 0 140 105" fill="none" xmlns="http://www.w3.org/2000/svg">
<g id="Group 1">
<path id="Vector" d="M39.832 0.620773C39.1103 1.56287 0.501465 69.4977 0.501465 69.8641C0.501465 70.1781 19.5739 103.727 20.0379 104.25C20.244 104.512 24.7802 96.9229 30.1411 87.3974L39.9351 70.1781L59.7292 70.1258C78.2862 70.1258 79.4718 70.0735 79.2656 69.1837C79.111 68.7127 74.781 60.862 69.6263 51.8075L60.2962 35.321L79.9873 35.1639L99.7298 35.0069L108.235 20.0382C112.926 11.8211 117.359 3.91808 118.184 2.50495L119.576 -0.00727844H79.9357C48.8527 -0.00727844 40.1928 0.149734 39.832 0.620773Z" fill="white"/>
<path id="Vector 1" d="M40.1278 0.0400391H119.575L99.6649 35.5645H60.4245L79.9481 69.9114H39.9345L20.2177 104.651L0.307617 69.9114L40.1278 0.0400391Z" fill="white"/>
<path id="Vector 2" d="M99.6651 104.847H20.218L40.1281 69.3222H79.3684L59.8449 34.9753H99.8584L119.575 0.23587L139.485 34.9753L99.6651 104.847Z" fill="#00B4D8"/>
</g>
</svg>
