<svg width="16" height="16" viewBox="0 0 16 16" fill="none" xmlns="http://www.w3.org/2000/svg">
<g clip-path="url(#clip0_9_3212)">
<path d="M13.1533 15.16H10.8867C10.3562 15.16 9.84752 14.9493 9.47244 14.5742C9.09737 14.1991 8.88666 13.6904 8.88666 13.16V10.18C8.88609 10.0524 8.85735 9.92646 8.80249 9.81124C8.74762 9.69601 8.66799 9.59433 8.56927 9.51345C8.47056 9.43256 8.3552 9.37448 8.23144 9.34334C8.10767 9.31221 7.97856 9.30879 7.85332 9.33333C7.64535 9.37857 7.45992 9.49553 7.3295 9.66373C7.19908 9.83193 7.132 10.0406 7.13999 10.2533V13.1333C7.13999 13.6638 6.92928 14.1725 6.5542 14.5475C6.17913 14.9226 5.67042 15.1333 5.13999 15.1333H2.84666C2.31622 15.1333 1.80752 14.9226 1.43244 14.5475C1.05737 14.1725 0.846656 13.6638 0.846656 13.1333V7.55334C0.841084 7.06258 0.941203 6.57638 1.14021 6.12775C1.33922 5.67912 1.63245 5.27858 1.99999 4.95334L5.83999 1.62C6.44282 1.10711 7.20849 0.82547 7.99999 0.82547C8.79148 0.82547 9.55715 1.10711 10.16 1.62L13.9933 4.95334C14.3654 5.27532 14.6639 5.67352 14.8687 6.12096C15.0734 6.5684 15.1796 7.05461 15.18 7.54667V13.1333C15.1836 13.4005 15.1336 13.6656 15.033 13.9131C14.9324 14.1606 14.7833 14.3855 14.5944 14.5744C14.4055 14.7633 14.1806 14.9125 13.9331 15.013C13.6856 15.1136 13.4205 15.1636 13.1533 15.16ZM7.99999 8.32667C8.49214 8.32667 8.96423 8.52171 9.31286 8.86909C9.66148 9.21647 9.85823 9.68786 9.85999 10.18V13.1333C9.85999 13.4056 9.96816 13.6668 10.1607 13.8593C10.3532 14.0518 10.6144 14.16 10.8867 14.16H13.1533C13.2887 14.1609 13.4229 14.135 13.5483 14.0838C13.6736 14.0326 13.7876 13.9571 13.8836 13.8617C13.9796 13.7662 14.0559 13.6528 14.1079 13.5278C14.1599 13.4028 14.1867 13.2687 14.1867 13.1333V7.54667C14.1847 7.19672 14.1075 6.85128 13.9602 6.5338C13.813 6.21632 13.5992 5.93423 13.3333 5.70667L9.49999 2.37334C9.07995 2.01461 8.5457 1.81752 7.99332 1.81752C7.44095 1.81752 6.9067 2.01461 6.48666 2.37334L2.66666 5.71334C2.40029 5.94007 2.18655 6.22215 2.04033 6.53993C1.89411 6.8577 1.81892 7.20353 1.81999 7.55334V13.1333C1.81999 13.2687 1.84676 13.4028 1.89877 13.5278C1.95078 13.6528 2.027 13.7662 2.12305 13.8617C2.21909 13.9571 2.33306 14.0326 2.45839 14.0838C2.58372 14.135 2.71794 14.1609 2.85332 14.16H5.11999C5.39112 14.1582 5.65055 14.0493 5.84165 13.857C6.03274 13.6646 6.14 13.4045 6.13999 13.1333V10.2533C6.13485 9.80398 6.28748 9.36706 6.57132 9.01866C6.85515 8.67026 7.2522 8.43246 7.69332 8.34667C7.79498 8.33315 7.89744 8.32647 7.99999 8.32667Z" fill="#5E6278"/>
</g>
<defs>
<clipPath id="clip0_9_3212">
<rect width="16" height="16" fill="white"/>
</clipPath>
</defs>
</svg>
