<?xml version="1.0" encoding="iso-8859-1"?>
<!-- Uploaded to: SVG Repo, www.svgrepo.com, Generator: SVG Repo Mixer Tools -->
<svg fill="#000000" height="800px" width="800px" version="1.1" id="Layer_1" xmlns="http://www.w3.org/2000/svg" xmlns:xlink="http://www.w3.org/1999/xlink" 
	 viewBox="0 0 512 512" xml:space="preserve">
<g>
	<g>
		<g>
			<path d="M145.067,469.333c0,4.713,3.82,8.533,8.533,8.533h298.667c4.713,0,8.533-3.82,8.533-8.533s-3.82-8.533-8.533-8.533H153.6
				C148.887,460.8,145.067,464.621,145.067,469.333z"/>
			<path d="M179.2,281.6c32.992,0,59.733-26.741,59.733-59.733s-26.741-59.733-59.733-59.733s-59.733,26.741-59.733,59.733
				S146.208,281.6,179.2,281.6z M179.2,179.2c23.567,0,42.667,19.1,42.667,42.667c0,23.567-19.1,42.667-42.667,42.667
				c-23.567,0-42.667-19.1-42.667-42.667C136.533,198.3,155.633,179.2,179.2,179.2z"/>
			<path d="M486.4,0H145.067C121.504,0,102.4,19.104,102.4,42.667v64.317L85.82,95.747c-3.387-2.296-7.928-1.864-10.821,1.03
				L49.936,121.84c-2.978,2.978-3.338,7.682-0.848,11.079l11.597,15.821c12.815,17.476,3.061,42.329-18.213,46.42l-18.485,3.559
				c-4.017,0.773-6.92,4.289-6.92,8.379v35.448c0,4.213,3.074,7.795,7.238,8.434l19.396,2.978
				c21.41,3.296,32.085,27.773,19.933,45.71L53.078,315.25c-2.295,3.387-1.862,7.927,1.031,10.82l25.062,25.062
				c2.978,2.978,7.683,3.338,11.079,0.848l12.149-8.907v126.26c0,23.563,19.104,42.667,42.667,42.667H486.4
				c4.713,0,8.533-3.82,8.533-8.533V435.2V8.533C494.933,3.82,491.113,0,486.4,0z M477.867,426.667H204.802v-44.232
				c1.834-1.298,3.145-3.307,3.509-5.668l0.42-2.728l1.679-10.909c1.491-9.689,7.297-17.143,14.85-21.314
				c9.513-5.252,21.8-5.294,31.753,2.006l11.14,8.161c3.396,2.488,8.1,2.127,11.077-0.85l25.062-25.062
				c1.628-1.628,2.476-3.776,2.499-5.948c0.018-1.689-0.464-3.392-1.468-4.874l-10.556-15.582
				c-3.038-4.484-4.649-9.377-5.023-14.245c-0.504-6.573,1.255-13.097,4.798-18.515c4.33-6.62,11.327-11.586,20.159-12.942
				l15.531-2.391l3.865-0.593c4.164-0.639,7.238-4.222,7.238-8.434v-0.002v-35.446v-0.002c0-4.092-2.905-7.608-6.924-8.38
				l-3.603-0.692l-14.876-2.864c-15.291-2.94-24.63-16.605-23.918-30.547c0.279-5.455,2.098-10.952,5.701-15.864l9.266-12.648
				l2.333-3.183c1.09-1.486,1.633-3.224,1.651-4.957c0.023-2.228-0.824-4.449-2.499-6.124l-25.062-25.062
				c-2.893-2.893-7.433-3.326-10.82-1.031L257,106.3c-10.371,7.026-22.921,6.407-32.306,0.507
				c-6.845-4.305-12.009-11.416-13.397-20.447l-2.431-15.782l-0.556-3.61c-0.363-2.361-1.674-4.369-3.508-5.667V17.067h273.064
				V426.667z M164.429,59.733c-4.091,0-7.607,2.904-8.38,6.922l-4.591,23.868c-0.003,0.016-0.007,0.032-0.01,0.048
				c-0.108,0.555-0.234,1.1-0.37,1.639c-0.053,0.212-0.112,0.421-0.169,0.631c-0.091,0.331-0.188,0.659-0.289,0.984
				c-0.08,0.256-0.159,0.512-0.246,0.764c-0.077,0.226-0.163,0.447-0.245,0.67c-0.261,0.705-0.541,1.399-0.851,2.072
				c-0.001,0.001-0.001,0.003-0.002,0.004c-5.272,11.443-17.397,18.26-29.807,16.964V42.668c0-14.137,11.463-25.6,25.6-25.6h42.667
				v42.665H164.429z M145.067,426.667c-0.677,0-1.35,0.02-2.02,0.051c-0.212,0.01-0.423,0.026-0.634,0.039
				c-0.461,0.028-0.921,0.062-1.379,0.105c-0.239,0.022-0.476,0.048-0.714,0.074c-0.441,0.049-0.879,0.105-1.315,0.167
				c-0.225,0.032-0.45,0.062-0.674,0.098c-0.507,0.08-1.01,0.172-1.51,0.27c-0.141,0.028-0.284,0.05-0.424,0.079
				c-0.637,0.131-1.268,0.278-1.894,0.437c-0.165,0.042-0.326,0.09-0.49,0.134c-0.464,0.124-0.925,0.254-1.383,0.393
				c-0.216,0.066-0.431,0.136-0.646,0.205c-0.408,0.131-0.814,0.268-1.217,0.412c-0.216,0.077-0.432,0.154-0.646,0.234
				c-0.425,0.159-0.845,0.326-1.263,0.498c-0.175,0.072-0.352,0.141-0.526,0.215c-0.585,0.25-1.164,0.51-1.735,0.784
				c-0.073,0.035-0.144,0.074-0.216,0.109c-0.498,0.243-0.991,0.495-1.478,0.757c-0.185,0.099-0.366,0.203-0.549,0.305
				c-0.376,0.209-0.748,0.422-1.117,0.642c-0.197,0.118-0.393,0.237-0.588,0.357c-0.362,0.224-0.719,0.454-1.074,0.688
				c-0.177,0.117-0.355,0.232-0.53,0.351c-0.438,0.299-0.869,0.606-1.295,0.921c-0.081,0.06-0.164,0.116-0.245,0.176
				c-0.013,0.009-0.026,0.018-0.038,0.027V334.944c2.149-0.302,4.296-0.351,6.408-0.179c2.019,0.165,4.005,0.531,5.928,1.098
				c0.031,0.009,0.061,0.018,0.092,0.027c8.716,2.598,16.121,9.169,19.379,18.261c0.022,0.061,0.045,0.12,0.067,0.181
				c0.122,0.349,0.234,0.704,0.344,1.06c0.064,0.209,0.127,0.419,0.187,0.63c0.091,0.321,0.181,0.643,0.262,0.969
				c0.068,0.276,0.128,0.557,0.189,0.836c0.056,0.255,0.117,0.507,0.167,0.765l2.724,14.147l0.833,4.338
				c0.772,4.019,4.288,6.924,8.38,6.924h23.306v42.665h-42.667H145.067z M86.063,333.888l-14.902-14.902l6.602-9.746
				c19.181-28.312,2.33-66.948-31.469-72.151l-12.161-1.867v-21.077l11.563-2.226c33.579-6.457,48.977-45.69,28.752-73.27
				l-7.269-9.916l14.902-14.902l14.286,9.681c13.543,9.173,29.509,10.091,43.035,4.81c0.104-0.041,0.21-0.078,0.315-0.12
				c0.631-0.252,1.254-0.522,1.874-0.801c0.138-0.062,0.278-0.123,0.415-0.187c0.628-0.29,1.249-0.595,1.864-0.912
				c0.097-0.05,0.194-0.101,0.291-0.152c8.394-4.401,15.492-11.337,19.948-20.262c0.01-0.021,0.022-0.041,0.032-0.062
				c0.293-0.589,0.568-1.19,0.838-1.796c0.116-0.258,0.231-0.517,0.342-0.778c0.211-0.5,0.414-1.006,0.609-1.517
				c0.156-0.406,0.304-0.816,0.449-1.228c0.148-0.422,0.296-0.844,0.432-1.274c0.185-0.577,0.352-1.163,0.515-1.751
				c0.083-0.302,0.175-0.599,0.253-0.904c0.239-0.931,0.457-1.873,0.641-2.831l3.26-16.946h21.077l1.872,12.16
				c2.081,13.541,9.54,24.353,19.546,31.226c14.963,10.28,35.63,11.739,52.597,0.244l9.746-6.602l14.903,14.903l-7.27,9.918
				c-3.793,5.172-6.332,10.753-7.734,16.452c-6.077,24.686,9.205,51.578,36.489,56.824l11.561,2.22v21.076l-12.158,1.867
				c-8.97,1.381-16.731,5.132-22.957,10.404c-11.37,9.625-17.586,24.362-16.443,39.26c0.589,7.685,3.133,15.409,7.928,22.487
				l6.602,9.745l-14.904,14.904l-5.233-3.834c-16.237-11.91-36.405-11.43-51.611-2.292c-11.188,6.722-19.695,18.12-21.949,32.762
				l-0.986,6.408h-21.076l-2.22-11.559c-0.186-0.964-0.404-1.911-0.644-2.847c-0.097-0.38-0.21-0.75-0.316-1.125
				c-0.149-0.527-0.299-1.053-0.465-1.57c-0.157-0.491-0.326-0.972-0.497-1.453c-0.129-0.359-0.259-0.718-0.396-1.072
				c-0.22-0.573-0.449-1.139-0.689-1.698c-0.085-0.197-0.174-0.392-0.262-0.588c-4.488-10.056-12.233-17.754-21.477-22.404
				c-0.074-0.037-0.148-0.074-0.223-0.112c-0.653-0.324-1.312-0.635-1.979-0.929c-0.115-0.051-0.231-0.098-0.346-0.148
				c-0.66-0.284-1.323-0.559-1.995-0.813c-0.055-0.021-0.112-0.039-0.167-0.06c-2.981-1.113-6.072-1.924-9.226-2.417
				c-0.041-0.006-0.082-0.014-0.124-0.02c-11.529-1.771-23.859,0.717-34.465,8.494L86.063,333.888z M477.867,494.933h-332.8
				c-14.129,0-25.587-11.45-25.599-25.576c0-0.008,0.001-0.015,0.001-0.023c0-14.137,11.463-25.6,25.6-25.6h51.2h281.598V494.933z"
				/>
		</g>
	</g>
</g>
</svg>