<svg
            xmlns="http://www.w3.org/2000/svg"
            width="25"
            height="24"
            viewBox="0 0 25 24"
            fill="none"
            class="flex-shrink-0"
          >
            <mask
              id="mask0_1102_3204"
              style="mask-type: alpha"
              maskUnits="userSpaceOnUse"
              x="0"
              y="0"
              width="25"
              height="24"
            >
              <rect x="0.5" width="24" height="24" fill="#D9D9D9" />
            </mask>
            <g mask="url(#mask0_1102_3204)">
              <path
                d="M4.5 21C3.95 21 3.47917 20.8042 3.0875 20.4125C2.69583 20.0208 2.5 19.55 2.5 19V8C2.5 7.45 2.69583 6.97917 3.0875 6.5875C3.47917 6.19583 3.95 6 4.5 6H8.5V4C8.5 3.45 8.69583 2.97917 9.0875 2.5875C9.47917 2.19583 9.95 2 10.5 2H14.5C15.05 2 15.5208 2.19583 15.9125 2.5875C16.3042 2.97917 16.5 3.45 16.5 4V6H20.5C21.05 6 21.5208 6.19583 21.9125 6.5875C22.3042 6.97917 22.5 7.45 22.5 8V19C22.5 19.55 22.3042 20.0208 21.9125 20.4125C21.5208 20.8042 21.05 21 20.5 21H4.5ZM4.5 19H20.5V8H4.5V19ZM10.5 6H14.5V4H10.5V6Z"
                fill="#7E8299"
              />
            </g>
          </svg>