<svg width="16" height="16" viewBox="0 0 16 16" fill="none" xmlns="http://www.w3.org/2000/svg">
<path d="M6.89344 12.6667C6.76103 12.6674 6.63138 12.6288 6.52104 12.5556C6.41069 12.4824 6.32464 12.378 6.27386 12.2557C6.22309 12.1334 6.20988 11.9987 6.23592 11.8689C6.26197 11.7391 6.32609 11.6199 6.42011 11.5267L9.90011 8.00001L6.42011 4.55334C6.35795 4.49118 6.30864 4.41739 6.275 4.33617C6.24136 4.25496 6.22405 4.16791 6.22405 4.08001C6.22405 3.9921 6.24136 3.90506 6.275 3.82384C6.30864 3.74263 6.35795 3.66883 6.42011 3.60668C6.48227 3.54452 6.55606 3.49521 6.63728 3.46157C6.71849 3.42793 6.80554 3.41061 6.89344 3.41061C6.98135 3.41061 7.0684 3.42793 7.14961 3.46157C7.23082 3.49521 7.30462 3.54452 7.36678 3.60668L11.3334 7.56001C11.4576 7.68492 11.5273 7.85388 11.5273 8.03001C11.5273 8.20613 11.4576 8.3751 11.3334 8.50001L7.38678 12.4467C7.32445 12.5157 7.24835 12.571 7.16339 12.6089C7.07843 12.6468 6.98647 12.6665 6.89344 12.6667Z" fill="#5E6278"/>
</svg>
