 <svg
            xmlns="http://www.w3.org/2000/svg"
            width="25"
            height="24"
            viewBox="0 0 25 24"
            fill="none"
            class="flex-shrink-0"
          >
            <mask
              id="mask0_1102_3217"
              style="mask-type: alpha"
              maskUnits="userSpaceOnUse"
              x="0"
              y="0"
              width="25"
              height="24"
            >
              <rect x="0.5" width="24" height="24" fill="#D9D9D9" />
            </mask>
            <g mask="url(#mask0_1102_3217)">
              <path
                d="M9.5 18H15.5C15.7833 18 16.0208 17.9042 16.2125 17.7125C16.4042 17.5208 16.5 17.2833 16.5 17C16.5 16.7167 16.4042 16.4792 16.2125 16.2875C16.0208 16.0958 15.7833 16 15.5 16H9.5C9.21667 16 8.97917 16.0958 8.7875 16.2875C8.59583 16.4792 8.5 16.7167 8.5 17C8.5 17.2833 8.59583 17.5208 8.7875 17.7125C8.97917 17.9042 9.21667 18 9.5 18ZM9.5 14H15.5C15.7833 14 16.0208 13.9042 16.2125 13.7125C16.4042 13.5208 16.5 13.2833 16.5 13C16.5 12.7167 16.4042 12.4792 16.2125 12.2875C16.0208 12.0958 15.7833 12 15.5 12H9.5C9.21667 12 8.97917 12.0958 8.7875 12.2875C8.59583 12.4792 8.5 12.7167 8.5 13C8.5 13.2833 8.59583 13.5208 8.7875 13.7125C8.97917 13.9042 9.21667 14 9.5 14ZM6.5 22C5.95 22 5.47917 21.8042 5.0875 21.4125C4.69583 21.0208 4.5 20.55 4.5 20V4C4.5 3.45 4.69583 2.97917 5.0875 2.5875C5.47917 2.19583 5.95 2 6.5 2H13.675C13.9417 2 14.1958 2.05 14.4375 2.15C14.6792 2.25 14.8917 2.39167 15.075 2.575L19.925 7.425C20.1083 7.60833 20.25 7.82083 20.35 8.0625C20.45 8.30417 20.5 8.55833 20.5 8.825V20C20.5 20.55 20.3042 21.0208 19.9125 21.4125C19.5208 21.8042 19.05 22 18.5 22H6.5ZM13.5 8V4H6.5V20H18.5V9H14.5C14.2167 9 13.9792 8.90417 13.7875 8.7125C13.5958 8.52083 13.5 8.28333 13.5 8Z"
                fill="#7E8299"
              />
            </g>
          </svg>