<?xml version="1.0" ?>
<!-- Uploaded to: SVG Repo, www.svgrepo.com, Generator: SVG Repo Mixer Tools -->
<svg fill="#000000" width="800px" height="800px" viewBox="0 0 512 512" xmlns="http://www.w3.org/2000/svg">
<g id="Brain_analyst">
<path d="M340.3882,119.7181c-.1406.002-.2812.0025-.4209.0025-7.5312,0-13.4961-2.3447-17.7353-6.9737a21.06,21.06,0,0,1-2.4009-3.1867,5.2264,5.2264,0,0,0-5.5791-2.3843,29.21,29.21,0,0,0,5.666,57.6687v.0217H330.9c8.0922-4.0422,9.1894-12.9819,9.3291-14.7751a18.51,18.51,0,0,1-5.19-6.49,5.5,5.5,0,0,1,10.0147-4.5493c.0654.1294,1.2714,2.4638,3.2275,3.0708,1.2754.3945,2.9268.019,4.91-1.12a5.5,5.5,0,1,1,5.4765,9.5391,19.5132,19.5132,0,0,1-7.8017,2.6435,36.5334,36.5334,0,0,1-1.1748,4.6669,5.333,5.333,0,0,0,5.0424,7.0139H371.96c4.3111.0451,37.9361,1.4595,40.0552,34.628a3.6119,3.6119,0,0,0,3.6221,3.3459h10.0244a3.6392,3.6392,0,0,0,3.6216-3.3381c.5161-6.01,2.3681-18.9031,8.9243-28.4057a5.3663,5.3663,0,0,0-1.2573-7.254,18.596,18.596,0,0,1-2.7227-2.6072c-6.7373-7.9038-4.5049-18.5-4.2285-19.6821a5.5,5.5,0,0,1,10.7178,2.4751c-.0411.1958-1.3077,6.3813,1.915,10.11,2.37,2.7408,6.7412,3.4726,10.7046,3.4783a5.3742,5.3742,0,0,0,3.7226-1.4559,31.49,31.49,0,0,0-7.6474-51.0143,5.3161,5.3161,0,0,0-6.3589,1.12,27.9207,27.9207,0,0,1-21.34,9.6364c-.2969,0-.5928-.0039-.8936-.0122l-.2393-.0122a9.159,9.159,0,0,0-5.8906,2.0244c-1.5449,1.4263-2.3789,3.7568-2.4814,6.9272-.001.0362-.0117.0691-.0137.1051A18.5665,18.5665,0,0,1,416.47,130.66a5.5,5.5,0,0,1-10.0147,4.5493c-.0654-.1294-1.2715-2.4639-3.2275-3.0708-1.2754-.3945-2.9268-.019-4.91,1.12a5.5,5.5,0,1,1-5.4765-9.539,18.9917,18.9917,0,0,1,8.7168-2.71,18.6738,18.6738,0,0,1,5.8193-11.3254,20.0414,20.0414,0,0,1,13.8242-4.7871A17.022,17.022,0,0,0,435.29,98.4491a5.2134,5.2134,0,0,0,.792-5.2886,39.3052,39.3052,0,0,0-56.189-18.9028,5.3053,5.3053,0,0,0-2.5908,4.5482,24.892,24.892,0,0,0,3.1968,12.07,5.6369,5.6369,0,0,1-2.0362,7.5193,5.4975,5.4975,0,0,1-7.5639-2.146A36.5,36.5,0,0,1,366.39,81.6406a5.3136,5.3136,0,0,0-4.9341-4.8832q-1.0628-.072-2.1445-.0725a31.5127,31.5127,0,0,0-30.439,23.38,5.2725,5.2725,0,0,0,.835,4.4766,9.4293,9.4293,0,0,0,.6743.8167c2.1436,2.313,5.3818,3.4067,9.88,3.3613.0215-.0005.0439-.0005.0644-.0005a5.5,5.5,0,0,1,.0625,11Z"/>
<path d="M297.5674,230.2463H367.93a6,6,0,0,0,0-12H297.5674a6,6,0,0,0,0,12Z"/>
<path d="M297.5674,253.9973h39.877a6,6,0,0,0,0-12h-39.877a6,6,0,0,0,0,12Z"/>
<path d="M269.7046,371.7761l.0225-.2851c.9355-17.9424-4.6631-33.1729-16.6406-45.2666-29.1275-29.41-87.378-31.0818-103.5508-30.9565-1.958.0152-5.7607.0173-7.627.0009C125.9732,295.13,67.42,296.7111,38.191,326.2244c-11.95,12.0654-17.55,27.2529-16.6465,45.14.0312,3.1836.5918,68.8506-5.8945,103.7285A17.3928,17.3928,0,0,0,32.7867,495.613H260.4712A17.3888,17.3888,0,0,0,277.649,475.47C274.2554,454.3318,266.6861,401.9138,269.7046,371.7761Zm-120.4975-64.49a239.4355,239.4355,0,0,1,26.7441,1.43c-9.1645,25.6143-26.7964,36.8386-33.0766,40.1465-6.2559-3.2861-23.6348-14.3538-32.8555-39.4962a242.5067,242.5067,0,0,1,28.6787-2.0687C139.54,307.2878,147.1553,307.2981,149.2071,307.2858ZM28.5933,481.6443a5.239,5.239,0,0,1-1.1465-4.3584c6.8291-36.7168,6.1289-103.3594,6.0957-106.1777l-.0078-.2422c-.7637-14.6231,3.544-26.458,13.168-36.1827C59.4258,321.8262,79.357,314.97,97.9864,311.33c8.3838,24.6321,23.7895,38.2259,33.6186,44.7447a11.78,11.78,0,0,1,5.2657,9.8244V483.613H79.47a285.074,285.074,0,0,0,3.4272-61.81,6,6,0,0,0-11.9648.916,280.0668,280.0668,0,0,1-3.6377,60.8935H32.7867A5.4389,5.4389,0,0,1,28.5933,481.6443Zm235.99.0713a5.3334,5.3334,0,0,1-4.1123,1.8974H224.79a280.0968,280.0968,0,0,1-3.6377-60.8935,6,6,0,0,0-11.9648-.916,285.1038,285.1038,0,0,0,3.4272,61.81H148.8707V365.8989a11.7689,11.7689,0,0,1,5.2548-9.8172c9.9537-6.601,25.6348-20.4624,33.9483-45.6974,20.0332,3.3474,42.581,10.2331,56.501,24.299,9.5937,9.6934,13.9043,21.4864,13.1757,36.045-3.0107,30.4179,3.7491,79.8545,8.0508,106.6435A5.3161,5.3161,0,0,1,264.5835,481.7156Z"/>
<path d="M143.0044,182.0559c-29.85,0-54.1347,23.0205-54.1347,51.3164s24.2851,51.3169,54.1347,51.3169,54.1348-23.0205,54.1348-51.3169S172.8541,182.0559,143.0044,182.0559Zm0,90.6333c-23.2334,0-42.1347-17.6377-42.1347-39.3169s18.9013-39.3164,42.1347-39.3164,42.1348,17.6372,42.1348,39.3164S166.2378,272.6892,143.0044,272.6892Z"/>
<path d="M157.37,242.9556h-28.731a5.1118,5.1118,0,0,0-4.86,6.6812c1.8672,5.8537,6.7027,13.4334,19.2251,13.4334s17.3584-7.58,19.2256-13.4335A5.1119,5.1119,0,0,0,157.37,242.9556Z"/>
<path d="M171.2,413.5854a8.7886,8.7886,0,1,0,8.788,8.7886A8.7885,8.7885,0,0,0,171.2,413.5854Z"/>
<path d="M171.2,443.7809a8.7886,8.7886,0,1,0,8.788,8.7886A8.7884,8.7884,0,0,0,171.2,443.7809Z"/>
<path d="M210.939,366.4877H187.4708a4.91,4.91,0,0,0-4.9107,4.91v11.7344a16.6448,16.6448,0,0,0,33.29,0V371.3982A4.91,4.91,0,0,0,210.939,366.4877Z"/>
<path d="M236.3218,283.1785a1.0133,1.0133,0,0,1,.1172-1.1543l22.2725-28.8013a22.6073,22.6073,0,0,0,4.7011-13.7622V135.8542a6,6,0,0,0-12,0V239.4607a10.5537,10.5537,0,0,1-2.1933,6.4214l-22.2725,28.8012a13.0961,13.0961,0,0,0,10.36,21.1084H393.6978a6,6,0,0,0,0-12H237.3072A1.0151,1.0151,0,0,1,236.3218,283.1785Z"/>
<path d="M474.146,16.387H273.91a22.5225,22.5225,0,0,0-22.4971,22.4975V82.67a6,6,0,1,0,12,0V38.8845A10.509,10.509,0,0,1,273.91,28.387H474.146a10.509,10.509,0,0,1,10.4971,10.4975v234.41a10.5089,10.5089,0,0,1-10.4971,10.497H460.2134a6,6,0,0,0,0,12H474.146a22.522,22.522,0,0,0,22.4971-22.497V38.8845A22.5225,22.5225,0,0,0,474.146,16.387Z"/>
<path d="M91.8951,151.1389h89.854a21.38,21.38,0,0,0,21.3559-21.3555v-15.04h73.9087a6,6,0,0,0,0-12H203.105V82.3821a21.38,21.38,0,0,0-21.3559-21.356H91.8951a21.38,21.38,0,0,0-21.356,21.356v47.4013A21.38,21.38,0,0,0,91.8951,151.1389Zm-9.356-68.7568a9.3669,9.3669,0,0,1,9.356-9.356h89.854a9.3668,9.3668,0,0,1,9.3559,9.356v47.4013a9.3664,9.3664,0,0,1-9.3559,9.3555H91.8951a9.3664,9.3664,0,0,1-9.356-9.3555Z"/>
<path d="M103.4332,99.67h66.8623a6,6,0,0,0,0-12H103.4332a6,6,0,0,0,0,12Z"/>
<path d="M103.4332,120.6887h33.3891a6,6,0,0,0,0-12H103.4332a6,6,0,0,0,0,12Z"/>
<path d="M452.857,342.4734h-8.7593c.0142-.1681.0254-.337.0254-.5088V301.1775a22.603,22.603,0,0,0-8.6978-17.7461L411.606,264.97a6,6,0,1,0-7.3516,9.4844l23.8194,18.4619a10.5216,10.5216,0,0,1,4.0493,8.2617v40.7871c0,.1718.0117.3407.0259.5088H384.16A21.38,21.38,0,0,0,362.8038,363.83v47.4014A21.38,21.38,0,0,0,384.16,432.5867H452.857a21.38,21.38,0,0,0,21.3559-21.3555V363.83A21.38,21.38,0,0,0,452.857,342.4734Zm9.3559,68.7578a9.3667,9.3667,0,0,1-9.3559,9.3555H384.16a9.3667,9.3667,0,0,1-9.3559-9.3555V363.83a9.3669,9.3669,0,0,1,9.3559-9.3564H452.857a9.3669,9.3669,0,0,1,9.3559,9.3564Z"/>
<path d="M441.4034,369.1169H395.6978a6,6,0,1,0,0,12h45.7056a6,6,0,0,0,0-12Z"/>
<path d="M423.0269,390.1365H395.6978a6,6,0,0,0,0,12h27.3291a6,6,0,0,0,0-12Z"/>
</g>
</svg>