<svg
            xmlns="http://www.w3.org/2000/svg"
            width="25"
            height="24"
            viewBox="0 0 25 24"
            fill="none"
            class="flex-shrink-0"
          >
            <mask
              id="mask0_1102_3670"
              style="mask-type: alpha"
              maskUnits="userSpaceOnUse"
              x="0"
              y="0"
              width="25"
              height="24"
            >
              <rect x="0.5" width="24" height="24" fill="#D9D9D9" />
            </mask>
            <g mask="url(#mask0_1102_3670)">
              <path
                d="M9.74995 22L9.34995 18.8C9.13328 18.7167 8.92912 18.6167 8.73745 18.5C8.54578 18.3833 8.35828 18.2583 8.17495 18.125L5.19995 19.375L2.44995 14.625L5.02495 12.675C5.00828 12.5583 4.99995 12.4458 4.99995 12.3375V11.6625C4.99995 11.5542 5.00828 11.4417 5.02495 11.325L2.44995 9.375L5.19995 4.625L8.17495 5.875C8.35828 5.74167 8.54995 5.61667 8.74995 5.5C8.94995 5.38333 9.14995 5.28333 9.34995 5.2L9.74995 2H15.25L15.65 5.2C15.8666 5.28333 16.0708 5.38333 16.2625 5.5C16.4541 5.61667 16.6416 5.74167 16.825 5.875L19.8 4.625L22.55 9.375L19.975 11.325C19.9916 11.4417 20 11.5542 20 11.6625V12.3375C20 12.4458 19.9833 12.5583 19.95 12.675L22.525 14.625L19.775 19.375L16.825 18.125C16.6416 18.2583 16.45 18.3833 16.25 18.5C16.05 18.6167 15.85 18.7167 15.65 18.8L15.25 22H9.74995ZM12.55 15.5C13.5166 15.5 14.3416 15.1583 15.025 14.475C15.7083 13.7917 16.05 12.9667 16.05 12C16.05 11.0333 15.7083 10.2083 15.025 9.525C14.3416 8.84167 13.5166 8.5 12.55 8.5C11.5666 8.5 10.7375 8.84167 10.0625 9.525C9.38745 10.2083 9.04995 11.0333 9.04995 12C9.04995 12.9667 9.38745 13.7917 10.0625 14.475C10.7375 15.1583 11.5666 15.5 12.55 15.5ZM12.55 13.5C12.1333 13.5 11.7791 13.3542 11.4875 13.0625C11.1958 12.7708 11.05 12.4167 11.05 12C11.05 11.5833 11.1958 11.2292 11.4875 10.9375C11.7791 10.6458 12.1333 10.5 12.55 10.5C12.9666 10.5 13.3208 10.6458 13.6125 10.9375C13.9041 11.2292 14.05 11.5833 14.05 12C14.05 12.4167 13.9041 12.7708 13.6125 13.0625C13.3208 13.3542 12.9666 13.5 12.55 13.5ZM11.5 20H13.475L13.825 17.35C14.3416 17.2167 14.8208 17.0208 15.2625 16.7625C15.7041 16.5042 16.1083 16.1917 16.475 15.825L18.95 16.85L19.925 15.15L17.775 13.525C17.8583 13.2917 17.9166 13.0458 17.95 12.7875C17.9833 12.5292 18 12.2667 18 12C18 11.7333 17.9833 11.4708 17.95 11.2125C17.9166 10.9542 17.8583 10.7083 17.775 10.475L19.925 8.85L18.95 7.15L16.475 8.2C16.1083 7.81667 15.7041 7.49583 15.2625 7.2375C14.8208 6.97917 14.3416 6.78333 13.825 6.65L13.5 4H11.525L11.175 6.65C10.6583 6.78333 10.1791 6.97917 9.73745 7.2375C9.29578 7.49583 8.89162 7.80833 8.52495 8.175L6.04995 7.15L5.07495 8.85L7.22495 10.45C7.14162 10.7 7.08328 10.95 7.04995 11.2C7.01662 11.45 6.99995 11.7167 6.99995 12C6.99995 12.2667 7.01662 12.525 7.04995 12.775C7.08328 13.025 7.14162 13.275 7.22495 13.525L5.07495 15.15L6.04995 16.85L8.52495 15.8C8.89162 16.1833 9.29578 16.5042 9.73745 16.7625C10.1791 17.0208 10.6583 17.2167 11.175 17.35L11.5 20Z"
                fill="#5E6278"
              />
            </g>
          </svg>