<svg width="17" height="16" viewBox="0 0 17 16" fill="none" xmlns="http://www.w3.org/2000/svg">
  <path d="M8.50004 5.33333C8.34427 5.333 8.19331 5.38733 8.07337 5.48667L4.07337 8.82C3.78986 9.05565 3.75106 9.4765 3.9867 9.76C4.22234 10.0435 4.6432 10.0823 4.9267 9.84667L8.50004 6.86L12.0734 9.74C12.2111 9.85185 12.3877 9.90418 12.5642 9.88541C12.7406 9.86665 12.9023 9.77832 13.0134 9.64C13.1368 9.50143 13.1969 9.31769 13.1792 9.13297C13.1614 8.94824 13.0675 8.77926 12.92 8.66667L8.92004 5.44667C8.79665 5.36304 8.64877 5.32311 8.50004 5.33333Z" fill="#023E8A"/>
</svg>
