<?xml version="1.0"?>
<svg id="Layer_1" style="enable-background:new 0 0 24 24;" version="1.1" viewBox="0 0 24 24" xml:space="preserve" xmlns="http://www.w3.org/2000/svg" xmlns:xlink="http://www.w3.org/1999/xlink">
<style type="text/css">
.st0 { fill: none; stroke: #5E6278; stroke-width: 1.6724; stroke-linecap: round; stroke-linejoin: round; stroke-miterlimit: 10; }
.st1 { fill: none; stroke: #5E6278; stroke-width: 1.5; stroke-linecap: round; stroke-linejoin: round; stroke-miterlimit: 10; }
.st2 { fill: none; stroke: #5E6278; stroke-width: 1.5; stroke-linejoin: round; stroke-miterlimit: 10; }
</style>
<g>
<g>
    <g>
    <g>
        <path class="st1" d="M15.4,13.6c-1.6-1.1-3.6-1.7-5.8-1.7c-5,0-8.8,2.9-9.2,8.6c-0.1,1.3,1,2.4,2.2,2.4h12.7"/>
    </g>
    <path class="st1" d="M12.9,3.7c0-1.8-1.5-3.3-3.3-3.3S6.3,1.9,6.3,3.7v1.9c0,1.8,1.5,3.3,3.3,3.3s3.3-1.5,3.3-3.3V3.7z"/>
    </g>
</g>
<g>
    <g>
    <g>
        <g>
        <path class="st1" d="M23.2,17.4L22.2,17c0-0.3-0.1-0.6-0.2-0.8l0.7-0.8c0.2-0.3,0.2-0.7,0-1l-0.9-1.1c-0.3-0.3-0.7-0.4-1-0.2l-0.9,0.5c-0.3-0.2-0.5-0.3-0.8-0.4l-0.2-1c-0.1-0.4-0.4-0.6-0.8-0.6h-1.4c-0.4,0-0.7,0.3-0.8,0.7l-0.2,1c-0.3,0.1-0.5,0.2-0.8,0.4L14,13c-0.3-0.2-0.8-0.1-1,0.2l-0.9,1.1c-0.2,0.3-0.2,0.7,0,1l0.7,0.8c-0.1,0.3-0.2,0.6-0.2,0.8l-0.9,0.4c-0.4,0.2-0.6,0.5-0.5,0.9l0.3,1.3c0.1,0.4,0.4,0.7,0.8,0.7l1,0c0.2,0.2,0.3,0.5,0.5,0.7l-0.2,1c-0.1,0.4,0.1,0.8,0.4,1l1.2,0.6c0.1,0.1,0.3,0.1,0.4,0.1c0.3,0,0.5-0.1,0.7-0.3l0.6-0.8c0.3,0,0.6,0,0.9,0l0.6,0.8c0.2,0.3,0.7,0.4,1,0.2l1.3-0.6c0.3-0.2,0.5-0.6,0.4-0.9l-0.2-1c0.2-0.2,0.4-0.4,0.5-0.7l1,0c0.4,0,0.7-0.3,0.8-0.6l0.3-1.3C23.7,17.9,23.5,17.6,23.2,17.4z M17.4,19.5c-1,0-1.9-0.8-1.9-1.9c0-1,0.8-1.9,1.9-1.9s1.9,0.8,1.9,1.9C19.3,18.7,18.4,19.5,17.4,19.5z"/>
        </g>
    </g>
    </g>
</g>
</g>
</svg>
