<svg width="20" height="20" viewBox="0 0 20 20" fill="none" xmlns="http://www.w3.org/2000/svg">
<mask id="mask0_15_7728" style="mask-type:alpha" maskUnits="userSpaceOnUse" x="0" y="0" width="20" height="20">
<rect width="20" height="20" fill="#D9D9D9"/>
</mask>
<g mask="url(#mask0_15_7728)">
<path d="M10.0001 13.3333C11.0417 13.3333 11.9272 12.9687 12.6563 12.2396C13.3855 11.5104 13.7501 10.625 13.7501 9.58333C13.7501 8.54166 13.3855 7.65624 12.6563 6.92708C11.9272 6.19791 11.0417 5.83333 10.0001 5.83333C8.95841 5.83333 8.073 6.19791 7.34383 6.92708C6.61467 7.65624 6.25008 8.54166 6.25008 9.58333C6.25008 10.625 6.61467 11.5104 7.34383 12.2396C8.073 12.9687 8.95841 13.3333 10.0001 13.3333ZM10.0001 11.8333C9.37508 11.8333 8.84383 11.6146 8.40633 11.1771C7.96883 10.7396 7.75008 10.2083 7.75008 9.58333C7.75008 8.95833 7.96883 8.42708 8.40633 7.98958C8.84383 7.55208 9.37508 7.33333 10.0001 7.33333C10.6251 7.33333 11.1563 7.55208 11.5938 7.98958C12.0313 8.42708 12.2501 8.95833 12.2501 9.58333C12.2501 10.2083 12.0313 10.7396 11.5938 11.1771C11.1563 11.6146 10.6251 11.8333 10.0001 11.8333ZM10.0001 15.8333C8.06953 15.8333 6.30564 15.3229 4.70841 14.3021C3.11119 13.2812 1.90286 11.9028 1.08341 10.1667C1.04175 10.0972 1.01397 10.0104 1.00008 9.90625C0.986192 9.80208 0.979248 9.69444 0.979248 9.58333C0.979248 9.47222 0.986192 9.36458 1.00008 9.26041C1.01397 9.15624 1.04175 9.06944 1.08341 8.99999C1.90286 7.26388 3.11119 5.88541 4.70841 4.86458C6.30564 3.84374 8.06953 3.33333 10.0001 3.33333C11.9306 3.33333 13.6945 3.84374 15.2917 4.86458C16.889 5.88541 18.0973 7.26388 18.9167 8.99999C18.9584 9.06944 18.9862 9.15624 19.0001 9.26041C19.014 9.36458 19.0209 9.47222 19.0209 9.58333C19.0209 9.69444 19.014 9.80208 19.0001 9.90625C18.9862 10.0104 18.9584 10.0972 18.9167 10.1667C18.0973 11.9028 16.889 13.2812 15.2917 14.3021C13.6945 15.3229 11.9306 15.8333 10.0001 15.8333ZM10.0001 14.1667C11.5695 14.1667 13.0105 13.7535 14.323 12.9271C15.6355 12.1007 16.639 10.9861 17.3334 9.58333C16.639 8.18055 15.6355 7.06597 14.323 6.23958C13.0105 5.41319 11.5695 4.99999 10.0001 4.99999C8.43064 4.99999 6.98967 5.41319 5.67717 6.23958C4.36466 7.06597 3.36119 8.18055 2.66675 9.58333C3.36119 10.9861 4.36466 12.1007 5.67717 12.9271C6.98967 13.7535 8.43064 14.1667 10.0001 14.1667Z" fill="#7E8299"/>
</g>
</svg>
